<svg width="22" height="32" viewBox="0 0 22 32" fill="none" xmlns="http://www.w3.org/2000/svg">
<path d="M6.71965 15.42L6.34965 17.15H7.66965V18.15H6.13965L5.73965 20H4.64965L5.04965 18.15H3.08965L2.68965 20H1.59965L1.99965 18.15H0.449648V17.15H2.20965L2.57965 15.42H1.03965V14.42H2.78965L3.17965 12.6H4.26965L3.87965 14.42H5.83965L6.22965 12.6H7.31965L6.92965 14.42H8.25965V15.42H6.71965ZM5.62965 15.42H3.66965L3.29965 17.15H5.25965L5.62965 15.42Z" fill="#212121"/>
<path d="M12.9827 12.8918L13.2352 13.1443C13.4025 13.3117 13.6739 13.3117 13.8413 13.1443L16.8214 10.1469L16.8214 23.5714C16.8214 23.8081 17.0133 24 17.25 24H17.6071C17.8438 24 18.0357 23.8081 18.0357 23.5714L18.0357 10.1469L21.0159 13.1443C21.1832 13.3117 21.4546 13.3117 21.622 13.1443L21.8745 12.8918C22.0418 12.7244 22.0418 12.4531 21.8745 12.2857L17.7316 8.12552C17.5643 7.95816 17.2929 7.95816 17.1255 8.12552L12.9826 12.2857C12.8153 12.4531 12.8153 12.7244 12.9827 12.8918V12.8918Z" fill="#212121"/>
</svg>
