<svg width="19" height="32" viewBox="0 0 19 32" fill="none" xmlns="http://www.w3.org/2000/svg">
<path d="M4.11272 13.936H1.88872L1.52072 15H0.344719L2.35272 9.408H3.65672L5.66472 15H4.48072L4.11272 13.936ZM3.80872 13.04L3.00072 10.704L2.19272 13.04H3.80872ZM2.39131 22.056H4.90331V23H1.09531V22.136L3.59131 18.36H1.09531V17.416H4.90331V18.28L2.39131 22.056Z" fill="#212121"/>
<path d="M9.98267 12.8918L10.2352 13.1443C10.4025 13.3117 10.6739 13.3117 10.8413 13.1443L13.8214 10.1469L13.8214 23.5714C13.8214 23.8081 14.0133 24 14.25 24H14.6071C14.8438 24 15.0357 23.8081 15.0357 23.5714L15.0357 10.1469L18.0159 13.1443C18.1832 13.3117 18.4546 13.3117 18.622 13.1443L18.8745 12.8918C19.0418 12.7244 19.0418 12.4531 18.8745 12.2857L14.7316 8.12552C14.5643 7.95816 14.2929 7.95816 14.1255 8.12552L9.98263 12.2857C9.81528 12.4531 9.81528 12.7244 9.98267 12.8918V12.8918Z" fill="#212121"/>
</svg>
